<svg width="74" height="74" viewBox="0 0 74 74" fill="none" xmlns="http://www.w3.org/2000/svg">
<g filter="url(#filter0_d_55_79)">
<path d="M37 23.4856L29.8314 16.0035C27.9302 14.0203 25.352 12.9067 22.664 12.9075C19.9761 12.9083 17.3986 14.0236 15.4985 16.008C13.5984 17.9924 12.5313 20.6833 12.5321 23.4888C12.5329 26.2943 13.6015 28.9845 15.5027 30.9677L37 53.3962L58.4973 30.9588C59.4805 29.987 60.2672 28.8193 60.8108 27.5248C61.3544 26.2303 61.6439 24.8351 61.6622 23.4219C61.6805 22.0086 61.4273 20.6058 60.9175 19.2964C60.4076 17.9871 59.6515 16.7976 58.6938 15.7983C57.7361 14.799 56.5963 14.0102 55.3416 13.4785C54.0869 12.9467 52.7429 12.6828 51.3888 12.7024C50.0348 12.7219 48.6982 13.0245 47.4581 13.5923C46.218 14.16 45.0994 14.9815 44.1686 16.008L37 23.4856ZM37 66L9.46915 37.2652C5.96771 33.6112 4.0004 28.6551 4 23.4872C3.9996 18.3193 5.96614 13.3629 9.46701 9.70832C12.9679 6.05376 17.7163 4.00042 22.6677 4C27.6191 3.99958 32.3678 6.05213 35.8692 9.7061L37 10.8908L38.1308 9.7061C41.6322 6.05213 46.3809 3.99958 51.3323 4C56.2837 4.00042 61.0321 6.05376 64.533 9.70832C68.0339 13.3629 70.0004 18.3193 70 23.4872C69.9996 28.6551 68.0323 33.6112 64.5308 37.2652L37 66Z" fill="white"/>
</g>
<defs>
<filter id="filter0_d_55_79" x="-2" y="0" width="78" height="78" filterUnits="userSpaceOnUse" color-interpolation-filters="sRGB">
<feFlood flood-opacity="0" result="BackgroundImageFix"/>
<feColorMatrix in="SourceAlpha" type="matrix" values="0 0 0 0 0 0 0 0 0 0 0 0 0 0 0 0 0 0 127 0" result="hardAlpha"/>
<feOffset dy="4"/>
<feGaussianBlur stdDeviation="2"/>
<feComposite in2="hardAlpha" operator="out"/>
<feColorMatrix type="matrix" values="0 0 0 0 0 0 0 0 0 0 0 0 0 0 0 0 0 0 0.25 0"/>
<feBlend mode="normal" in2="BackgroundImageFix" result="effect1_dropShadow_55_79"/>
<feBlend mode="normal" in="SourceGraphic" in2="effect1_dropShadow_55_79" result="shape"/>
</filter>
</defs>
</svg>
