<svg width="70" height="70" viewBox="0 0 70 70" fill="none" xmlns="http://www.w3.org/2000/svg">
<path d="M34.5 12C28.5326 12 22.8097 14.3705 18.5901 18.5901C14.3705 22.8097 12 28.5326 12 34.5C12 40.4674 14.3705 46.1903 18.5901 50.4099C22.8097 54.6295 28.5326 57 34.5 57C40.4674 57 46.1903 54.6295 50.4099 50.4099C54.6295 46.1903 57 40.4674 57 34.5C57 28.5326 54.6295 22.8097 50.4099 18.5901C46.1903 14.3705 40.4674 12 34.5 12ZM66 34.5C66 42.8543 62.6813 50.8665 56.7739 56.7739C50.8665 62.6813 42.8543 66 34.5 66C26.1457 66 18.1335 62.6813 12.2261 56.7739C6.31874 50.8665 3 42.8543 3 34.5C3 26.1457 6.31874 18.1335 12.2261 12.2261C18.1335 6.31874 26.1457 3 34.5 3C42.8543 3 50.8665 6.31874 56.7739 12.2261C62.6813 18.1335 66 26.1457 66 34.5Z" fill="white"/>
</svg>
