<svg width="25" height="25" viewBox="0 0 25 25" fill="none" xmlns="http://www.w3.org/2000/svg">
<path d="M12.3215 4.28571C10.1903 4.28571 8.14641 5.13233 6.63943 6.63932C5.13244 8.14631 4.28582 10.1902 4.28582 12.3214C4.28582 14.4526 5.13244 16.4965 6.63943 18.0035C8.14641 19.5105 10.1903 20.3571 12.3215 20.3571C14.4527 20.3571 16.4967 19.5105 18.0036 18.0035C19.5106 16.4965 20.3572 14.4526 20.3572 12.3214C20.3572 10.1902 19.5106 8.14631 18.0036 6.63932C16.4967 5.13233 14.4527 4.28571 12.3215 4.28571ZM23.5715 12.3214C23.5715 15.3051 22.3863 18.1666 20.2765 20.2764C18.1667 22.3862 15.3052 23.5714 12.3215 23.5714C9.33785 23.5714 6.47637 22.3862 4.36658 20.2764C2.2568 18.1666 1.07153 15.3051 1.07153 12.3214C1.07153 9.33774 2.2568 6.47626 4.36658 4.36648C6.47637 2.25669 9.33785 1.07143 12.3215 1.07143C15.3052 1.07143 18.1667 2.25669 20.2765 4.36648C22.3863 6.47626 23.5715 9.33774 23.5715 12.3214Z" fill="white"/>
<path d="M7.66198 4.28571L19.6131 19.1278L16.9512 21.2712L5.0001 6.42909L7.66198 4.28571Z" fill="white"/>
</svg>
